<svg width="50" height="50" viewBox="0 0 50 50" fill="none" xmlns="http://www.w3.org/2000/svg">
<g id="material-symbols:travel-explore">
<path id="Vector" d="M25 45.8333C22.1181 45.8333 19.4097 45.2861 16.875 44.1917C14.3403 43.0972 12.1354 41.6132 10.2604 39.7396C8.38542 37.866 6.90139 35.6611 5.80833 33.125C4.71528 30.5889 4.16806 27.8806 4.16667 25C4.16528 22.1194 4.7125 19.4111 5.80833 16.875C6.90417 14.3389 8.38819 12.134 10.2604 10.2604C12.1326 8.38681 14.3375 6.90278 16.875 5.80833C19.4125 4.71389 22.1208 4.16667 25 4.16667C30.0694 4.16667 34.5056 5.75556 38.3083 8.93333C42.1111 12.1111 44.4806 16.0951 45.4167 20.8854H41.1458C40.4861 18.3507 39.2965 16.0854 37.5771 14.0896C35.8576 12.0938 33.7486 10.5917 31.25 9.58333V10.4167C31.25 11.5625 30.8424 12.5437 30.0271 13.3604C29.2118 14.1771 28.2306 14.5847 27.0833 14.5833H22.9167V18.75C22.9167 19.3403 22.7167 19.8354 22.3167 20.2354C21.9167 20.6354 21.4222 20.8347 20.8333 20.8333H16.6667V25H20.8333V31.25H18.75L8.75 21.25C8.64583 21.875 8.55069 22.5 8.46458 23.125C8.37847 23.75 8.33472 24.375 8.33333 25C8.33333 29.5486 9.93056 33.4549 13.125 36.7188C16.3194 39.9826 20.2778 41.6319 25 41.6667V45.8333ZM43.9583 44.7917L37.2917 38.125C36.5625 38.5417 35.7812 38.8889 34.9479 39.1667C34.1146 39.4444 33.2292 39.5833 32.2917 39.5833C29.6875 39.5833 27.4743 38.6722 25.6521 36.85C23.8299 35.0278 22.9181 32.8139 22.9167 30.2083C22.9153 27.6028 23.8271 25.3896 25.6521 23.5688C27.4771 21.7479 29.6903 20.8361 32.2917 20.8333C34.8931 20.8306 37.1069 21.7424 38.9333 23.5688C40.7597 25.3951 41.6708 27.6083 41.6667 30.2083C41.6667 31.1458 41.5278 32.0312 41.25 32.8646C40.9722 33.6979 40.625 34.4792 40.2083 35.2083L46.875 41.875L43.9583 44.7917ZM32.2917 35.4167C33.75 35.4167 34.9826 34.9132 35.9896 33.9062C36.9965 32.8993 37.5 31.6667 37.5 30.2083C37.5 28.75 36.9965 27.5174 35.9896 26.5104C34.9826 25.5035 33.75 25 32.2917 25C30.8333 25 29.6007 25.5035 28.5938 26.5104C27.5868 27.5174 27.0833 28.75 27.0833 30.2083C27.0833 31.6667 27.5868 32.8993 28.5938 33.9062C29.6007 34.9132 30.8333 35.4167 32.2917 35.4167Z" fill="black"/>
</g>
</svg>
